<?xml version="1.0" encoding="UTF-8" standalone="no"?>
<!-- Created with Inkscape (http://www.inkscape.org/) -->

<svg
   xmlns:dc="http://purl.org/dc/elements/1.1/"
   xmlns:cc="http://creativecommons.org/ns#"
   xmlns:rdf="http://www.w3.org/1999/02/22-rdf-syntax-ns#"
   xmlns:svg="http://www.w3.org/2000/svg"
   xmlns="http://www.w3.org/2000/svg"
   xmlns:sodipodi="http://sodipodi.sourceforge.net/DTD/sodipodi-0.dtd"
   xmlns:inkscape="http://www.inkscape.org/namespaces/inkscape"
   id="svg2"
   version="1.1"
   inkscape:version="0.48.5 r10040"
   width="430.67526"
   height="236.98625"
   xml:space="preserve"
   sodipodi:docname="logo.svg"><metadata
     id="metadata8"><rdf:RDF><cc:Work
         rdf:about=""><dc:format>image/svg+xml</dc:format><dc:type
           rdf:resource="http://purl.org/dc/dcmitype/StillImage" /><dc:title></dc:title></cc:Work></rdf:RDF></metadata><defs
     id="defs6"><clipPath
       clipPathUnits="userSpaceOnUse"
       id="clipPath282"><path
         d="m 0,595.28 841.89,0 L 841.89,0 0,0 0,595.28 z"
         id="path284"
         inkscape:connector-curvature="0" /></clipPath></defs><sodipodi:namedview
     pagecolor="#ffffff"
     bordercolor="#666666"
     borderopacity="1"
     objecttolerance="10"
     gridtolerance="10"
     guidetolerance="10"
     inkscape:pageopacity="0"
     inkscape:pageshadow="2"
     inkscape:window-width="1047"
     inkscape:window-height="480"
     id="namedview4"
     showgrid="false"
     inkscape:zoom="0.31716168"
     inkscape:cx="416.39627"
     inkscape:cy="-51.919988"
     inkscape:window-x="0"
     inkscape:window-y="27"
     inkscape:window-maximized="0"
     inkscape:current-layer="g10"
     fit-margin-top="0"
     fit-margin-left="0"
     fit-margin-right="0"
     fit-margin-bottom="0" /><g
     id="g10"
     inkscape:groupmode="layer"
     inkscape:label="logo_icon_bpl"
     transform="matrix(1.25,0,0,-1.25,-109.785,660.95625)"><g
       id="g278"><g
         id="g280"
         clip-path="url(#clipPath282)"><g
           id="g286"
           transform="translate(261.3062,393.1396)"><path
             d="m 0,0 2.499,0 0,-8.133 C 1.698,-9.46 0.866,-10.765 0,-12.046 L 0,0 z"
             style="fill:#2597c2;fill-opacity:1;fill-rule:nonzero;stroke:none"
             id="path288"
             inkscape:connector-curvature="0" /></g><path
           d="m 226.104,360.784 -14.802,0 0,14.808 14.802,0 0,-14.808 z m -17.904,0 -14.802,0 0,14.808 14.802,0 0,-14.808 z m -17.839,-17.305 -14.808,0 0,14.801 14.808,0 0,-14.801 z m -68.648,94.941 -14.805,0 0,14.8 14.805,0 0,-14.8 z m 0,-17.912 -14.805,0 0,14.808 14.805,0 0,-14.808 z m 35.87,86.049 14.806,0 0,-14.807 -14.806,0 0,14.807 z m 17.905,0 14.806,0 0,-14.807 -14.806,0 0,14.807 z m 17.91,0 14.802,0 0,-14.807 -14.802,0 0,14.807 z m 33.653,-0.644 14.803,0 0,-14.807 -14.803,0 0,14.807 z m 19.448,-112.773 -2.485,0 0,-14.036 -14.805,0 0,14.036 -3.105,0 0,-14.036 -14.802,0 0,14.036 -3.102,0 0,-14.036 -14.802,0 0,14.036 -3.105,0 0,-14.036 -14.805,0 0,14.036 -3.099,0 0,-14.036 -14.806,0 0,14.036 -3.104,0 0,-14.036 -14.802,0 0,23.5 -14.45,0 0,14.805 14.45,0 0,3.099 -14.45,0 0,14.807 14.45,0 0,3.105 -14.45,0 0,14.8 14.45,0 0,3.104 -14.45,0 0,14.806 14.45,0 0,17.106 14.802,0 0,-14.373 3.104,0 0,14.373 14.806,0 0,-14.373 3.099,0 0,14.373 14.805,0 0,-14.373 3.105,0 0,14.373 14.802,0 0,-14.373 3.102,0 0,14.373 14.802,0 0,-14.373 42.534,0 c -15.058,32.421 -47.914,54.902 -86.018,54.902 -52.35,0 -94.792,-42.439 -94.792,-94.792 0,-52.355 42.442,-94.797 94.792,-94.797 22.884,0 43.876,8.108 60.252,21.608 l -13.663,0 0,14.808 14.805,0 0,-13.85 c 1.01,0.852 1.996,1.734 2.967,2.631 l 0,11.219 10.324,0 c 0.905,1.146 1.782,2.318 2.625,3.512 l -13.431,0 0,14.036 z"
           style="fill:#2597c2;fill-opacity:1;fill-rule:nonzero;stroke:none"
           id="path290"
           inkscape:connector-curvature="0" /><g
           id="g292"
           transform="translate(156.9204,443.4766)"><path
             d="m 0,0 -2.504,0 0,5.525 2.361,0 c 1.13,0 1.985,-0.238 2.581,-0.703 C 3.032,4.354 3.328,3.684 3.328,2.808 3.328,0.938 2.218,0 0,0 m -2.504,15.442 2,0 c 2.232,0 3.347,-0.737 3.347,-2.213 0,-0.829 -0.277,-1.453 -0.839,-1.875 -0.557,-0.419 -1.346,-0.629 -2.366,-0.629 l -2.142,0 0,4.717 z M 9.555,6.136 C 8.827,7.145 7.641,7.862 6.014,8.297 l 0,0.182 c 1.232,0.297 2.227,0.969 2.983,2.013 0.758,1.041 1.136,2.303 1.136,3.779 0,2.242 -0.868,3.895 -2.602,4.956 -1.732,1.067 -4.388,1.595 -7.965,1.595 l -9.178,0 0,-26.312 10.241,0 c 3.094,0 5.542,0.685 7.336,2.06 1.79,1.371 2.689,3.258 2.689,5.643 0,1.608 -0.366,2.914 -1.099,3.923"
             style="fill:#535353;fill-opacity:1;fill-rule:nonzero;stroke:none"
             id="path294"
             inkscape:connector-curvature="0" /></g><g
           id="g296"
           transform="translate(189.813,471.5693)"><path
             d="m 0,0 c -0.561,0.518 -1.318,0.775 -2.281,0.775 -0.955,0 -1.714,-0.253 -2.265,-0.747 -0.554,-0.5 -0.829,-1.195 -0.829,-2.095 0,-0.875 0.275,-1.566 0.818,-2.061 0.548,-0.5 1.306,-0.748 2.276,-0.748 0.963,0 1.72,0.252 2.281,0.762 0.557,0.509 0.833,1.195 0.833,2.047 C 0.833,-1.206 0.557,-0.515 0,0 m -8.674,0.009 c -0.561,0.509 -1.314,0.766 -2.262,0.766 -0.938,0 -1.68,-0.253 -2.232,-0.747 -0.553,-0.5 -0.83,-1.195 -0.83,-2.095 0,-0.89 0.277,-1.581 0.83,-2.071 0.552,-0.496 1.294,-0.738 2.232,-0.738 0.948,0 1.701,0.252 2.262,0.762 0.557,0.509 0.832,1.195 0.832,2.047 0,0.876 -0.275,1.566 -0.832,2.076 m 6.27,-7.28 0,-15.405 c 0,-1.895 -0.33,-3.262 -0.982,-4.095 -0.651,-0.837 -1.707,-1.251 -3.161,-1.251 -1.351,0 -2.381,0.418 -3.074,1.26 -0.696,0.838 -1.043,2.191 -1.043,4.048 l 0,15.443 -7.147,0 0,-16 c 0,-3.443 0.962,-6.085 2.891,-7.917 1.923,-1.838 4.679,-2.756 8.269,-2.756 3.671,0 6.479,0.947 8.431,2.837 1.947,1.889 2.924,4.554 2.924,7.997 l 0,15.839 -7.108,0 z"
             style="fill:#535353;fill-opacity:1;fill-rule:nonzero;stroke:none"
             id="path298"
             inkscape:connector-curvature="0" /></g><g
           id="g300"
           transform="translate(218.7622,464.2988)"><path
             d="m 0,0 0,-11.896 c 0,-1.611 0.081,-3.739 0.253,-6.39 l -0.11,0 L -9.431,0 l -9.287,0 0,-26.313 6.298,0 0,11.859 c 0,1.538 -0.115,3.761 -0.342,6.68 l 0.161,0 9.613,-18.539 9.321,0 L 6.333,0 0,0 z"
             style="fill:#535353;fill-opacity:1;fill-rule:nonzero;stroke:none"
             id="path302"
             inkscape:connector-curvature="0" /></g><g
           id="g304"
           transform="translate(244.229,445.6982)"><path
             d="m 0,0 c -1.01,-1.257 -2.592,-1.88 -4.752,-1.88 l -1.585,0 0,14.738 2.072,0 c 1.941,0 3.393,-0.58 4.346,-1.746 C 1.034,9.95 1.514,8.16 1.514,5.751 1.514,3.171 1.009,1.253 0,0 m 5.445,15.358 c -2.299,2.161 -5.558,3.243 -9.783,3.243 l -9.105,0 0,-26.313 8.51,0 c 4.38,0 7.781,1.186 10.2,3.561 2.417,2.38 3.627,5.76 3.627,10.155 0,4.079 -1.154,7.197 -3.449,9.354"
             style="fill:#535353;fill-opacity:1;fill-rule:nonzero;stroke:none"
             id="path306"
             inkscape:connector-curvature="0" /></g><g
           id="g308"
           transform="translate(276.5542,464.2988)"><path
             d="m 0,0 0,-11.896 c 0,-1.611 0.081,-3.739 0.253,-6.39 l -0.109,0 L -9.431,0 l -9.289,0 0,-26.313 6.298,0 0,11.859 c 0,1.538 -0.113,3.761 -0.342,6.68 l 0.161,0 9.614,-18.539 9.326,0 L 6.337,0 0,0 z"
             style="fill:#535353;fill-opacity:1;fill-rule:nonzero;stroke:none"
             id="path310"
             inkscape:connector-curvature="0" /></g><path
           d="m 288.576,437.986 7.146,0 0,26.313 -7.146,0 0,-26.313 z"
           style="fill:#535353;fill-opacity:1;fill-rule:nonzero;stroke:none"
           id="path312"
           inkscape:connector-curvature="0" /><g
           id="g314"
           transform="translate(312.5708,453.6777)"><path
             d="m 0,0 c -2.366,1.081 -3.813,1.828 -4.352,2.233 -0.533,0.409 -0.8,0.871 -0.8,1.384 0,0.482 0.209,0.887 0.632,1.211 0.42,0.322 1.091,0.485 2.016,0.485 1.79,0 3.912,-0.566 6.37,-1.696 l 2.18,5.49 c -2.833,1.261 -5.608,1.89 -8.336,1.89 -3.081,0 -5.504,-0.677 -7.27,-2.033 -1.762,-1.357 -2.647,-3.246 -2.647,-5.67 0,-1.294 0.209,-2.418 0.623,-3.366 0.414,-0.948 1.049,-1.785 1.904,-2.518 0.863,-0.733 2.148,-1.49 3.863,-2.265 1.898,-0.854 3.065,-1.416 3.503,-1.692 0.437,-0.28 0.751,-0.551 0.951,-0.818 0.201,-0.272 0.295,-0.586 0.295,-0.948 0,-0.575 -0.243,-1.047 -0.737,-1.414 -0.49,-0.367 -1.262,-0.546 -2.32,-0.546 -1.224,0 -2.569,0.195 -4.03,0.585 -1.461,0.385 -2.876,0.933 -4.23,1.628 l 0,-6.337 c 1.282,-0.609 2.521,-1.042 3.705,-1.286 1.191,-0.247 2.662,-0.37 4.413,-0.37 2.099,0 3.929,0.352 5.489,1.055 1.556,0.701 2.753,1.682 3.581,2.949 0.829,1.266 1.243,2.718 1.243,4.346 0,1.78 -0.444,3.252 -1.324,4.418 C 3.842,-2.113 2.266,-1.02 0,0"
             style="fill:#535353;fill-opacity:1;fill-rule:nonzero;stroke:none"
             id="path316"
             inkscape:connector-curvature="0" /></g><g
           id="g318"
           transform="translate(158.7681,419.4336)"><path
             d="m 0,0 c -0.662,-0.629 -1.548,-0.942 -2.667,-0.942 l -1.356,0 0,6.325 1.922,0 C -0.043,5.383 0.99,4.455 0.99,2.595 0.99,1.49 0.657,0.623 0,0 m 5.902,9.111 c -1.748,1.519 -4.356,2.282 -7.831,2.282 l -9.531,0 0,-27.533 7.437,0 0,9.132 2.094,0 c 3.339,0 5.913,0.837 7.728,2.514 1.812,1.675 2.722,4.051 2.722,7.127 0,2.799 -0.875,4.961 -2.619,6.478"
             style="fill:#535353;fill-opacity:1;fill-rule:nonzero;stroke:none"
             id="path320"
             inkscape:connector-curvature="0" /></g><g
           id="g322"
           transform="translate(180.5103,418.9053)"><path
             d="m 0,0 -1.396,0 0,6.289 1.467,0 C 2.623,6.289 3.895,5.341 3.895,3.446 3.895,1.146 2.595,0 0,0 m 6.74,-3.619 c 3.115,1.748 4.67,4.214 4.67,7.403 0,5.424 -3.742,8.137 -11.225,8.137 l -9.02,0 0,-27.532 7.439,0 0,10.016 1.881,0 5.843,-10.016 8.436,0 -8.024,11.992 z"
             style="fill:#535353;fill-opacity:1;fill-rule:nonzero;stroke:none"
             id="path324"
             inkscape:connector-curvature="0" /></g><path
           d="m 197.778,403.294 7.473,0 0,27.532 -7.473,0 0,-27.532 z"
           style="fill:#535353;fill-opacity:1;fill-rule:nonzero;stroke:none"
           id="path326"
           inkscape:connector-curvature="0" /><g
           id="g328"
           transform="translate(226.6606,430.8262)"><path
             d="m 0,0 -3.822,-14.031 c -0.199,-0.752 -0.434,-1.789 -0.694,-3.109 -0.264,-1.317 -0.439,-2.419 -0.53,-3.294 -0.076,1.218 -0.499,3.375 -1.28,6.48 L -10.073,0 l -8.36,0 8.983,-27.532 8.756,0 L 8.327,0 0,0 z"
             style="fill:#535353;fill-opacity:1;fill-rule:nonzero;stroke:none"
             id="path330"
             inkscape:connector-curvature="0" /></g><g
           id="g332"
           transform="translate(243.0938,414.5527)"><path
             d="M 0,0 C 1.143,4.318 1.881,7.213 2.214,8.685 2.547,10.15 2.77,11.208 2.885,11.846 3.009,11.155 3.271,10.012 3.666,8.417 4.061,6.823 4.394,5.523 4.67,4.519 L 5.86,0 0,0 z m 7.798,16.383 -9.921,0 -8.984,-27.642 8.169,0 1.396,5.156 8.944,0 1.357,-5.156 8.133,0 -9.094,27.642 z"
             style="fill:#535353;fill-opacity:1;fill-rule:nonzero;stroke:none"
             id="path334"
             inkscape:connector-curvature="0" /></g><g
           id="g336"
           transform="translate(260.9473,430.8262)"><path
             d="m 0,0 0,-6.086 6.723,0 0,-21.446 7.439,0 0,21.446 6.703,0 0,6.086 L 0,0 z"
             style="fill:#535353;fill-opacity:1;fill-rule:nonzero;stroke:none"
             id="path338"
             inkscape:connector-curvature="0" /></g><g
           id="g340"
           transform="translate(297.4238,419.7148)"><path
             d="m 0,0 c -2.476,1.128 -3.99,1.908 -4.546,2.331 -0.561,0.43 -0.84,0.915 -0.84,1.453 0,0.5 0.22,0.923 0.657,1.261 0.44,0.339 1.144,0.511 2.11,0.511 1.872,0 4.095,-0.592 6.666,-1.772 l 2.281,5.741 c -2.962,1.32 -5.871,1.981 -8.719,1.981 -3.226,0 -5.764,-0.709 -7.606,-2.128 -1.848,-1.419 -2.772,-3.399 -2.772,-5.932 0,-1.356 0.22,-2.533 0.652,-3.522 0.434,-0.991 1.096,-1.872 1.996,-2.639 0.894,-0.767 2.242,-1.556 4.038,-2.371 1.983,-0.89 3.203,-1.48 3.664,-1.771 0.459,-0.289 0.791,-0.575 0.995,-0.857 0.211,-0.28 0.314,-0.608 0.314,-0.991 0,-0.598 -0.257,-1.093 -0.776,-1.474 -0.513,-0.385 -1.323,-0.577 -2.427,-0.577 -1.282,0 -2.686,0.205 -4.217,0.614 -1.534,0.405 -3.01,0.976 -4.423,1.704 l 0,-6.631 c 1.341,-0.638 2.632,-1.084 3.875,-1.341 1.241,-0.258 2.778,-0.392 4.612,-0.392 2.199,0 4.113,0.371 5.746,1.105 1.635,0.732 2.882,1.761 3.748,3.09 0.866,1.323 1.3,2.836 1.3,4.547 0,1.856 -0.464,3.399 -1.387,4.622 C 4.019,-2.215 2.371,-1.067 0,0"
             style="fill:#535353;fill-opacity:1;fill-rule:nonzero;stroke:none"
             id="path342"
             inkscape:connector-curvature="0" /></g><g
           id="g344"
           transform="translate(319.4658,419.4336)"><path
             d="m 0,0 c -0.661,-0.629 -1.547,-0.942 -2.666,-0.942 l -1.356,0 0,6.325 1.923,0 c 2.056,0 3.085,-0.928 3.085,-2.788 C 0.986,1.49 0.656,0.623 0,0 m 5.904,9.111 c -1.748,1.519 -4.356,2.282 -7.837,2.282 l -9.526,0 0,-27.533 7.437,0 0,9.132 2.089,0 c 3.342,0 5.917,0.837 7.733,2.514 1.813,1.675 2.721,4.051 2.721,7.127 0,2.799 -0.875,4.961 -2.617,6.478"
             style="fill:#535353;fill-opacity:1;fill-rule:nonzero;stroke:none"
             id="path346"
             inkscape:connector-curvature="0" /></g><g
           id="g348"
           transform="translate(348.4922,430.8262)"><path
             d="m 0,0 0,-10.208 -8.641,0 0,10.208 -7.479,0 0,-27.532 7.479,0 0,11.221 8.641,0 0,-11.221 7.48,0 L 7.48,0 0,0 z"
             style="fill:#535353;fill-opacity:1;fill-rule:nonzero;stroke:none"
             id="path350"
             inkscape:connector-curvature="0" /></g><g
           id="g352"
           transform="translate(380.2134,438.4336)"><path
             d="m 0,0 c -0.58,0.538 -1.375,0.809 -2.381,0.809 -1.004,0 -1.793,-0.261 -2.375,-0.786 -0.576,-0.517 -0.861,-1.247 -0.861,-2.19 0,-0.918 0.281,-1.637 0.851,-2.155 0.578,-0.525 1.368,-0.782 2.385,-0.782 1.006,0 1.801,0.267 2.381,0.8 0.586,0.533 0.877,1.247 0.877,2.137 C 0.877,-1.262 0.586,-0.543 0,0 m -9.074,0.01 c -0.584,0.532 -1.375,0.799 -2.365,0.799 -0.977,0 -1.756,-0.261 -2.334,-0.786 -0.575,-0.517 -0.866,-1.247 -0.866,-2.19 0,-0.927 0.291,-1.651 0.866,-2.166 0.578,-0.514 1.357,-0.771 2.334,-0.771 0.99,0 1.781,0.267 2.365,0.8 0.582,0.533 0.877,1.247 0.877,2.137 0,0.914 -0.295,1.639 -0.877,2.177 m -1.086,-23.891 c 1.144,4.318 1.881,7.213 2.215,8.685 0.334,1.466 0.556,2.523 0.666,3.161 0.129,-0.691 0.39,-1.834 0.787,-3.429 0.394,-1.594 0.728,-2.893 1.004,-3.898 l 1.185,-4.519 -5.857,0 z m 7.799,16.383 -9.926,0 -8.984,-27.642 8.175,0 1.395,5.157 8.945,0 1.352,-5.157 8.138,0 -9.095,27.642 z"
             style="fill:#535353;fill-opacity:1;fill-rule:nonzero;stroke:none"
             id="path354"
             inkscape:connector-curvature="0" /></g><g
           id="g356"
           transform="translate(398.7524,418.9053)"><path
             d="m 0,0 -1.391,0 0,6.289 1.467,0 C 2.623,6.289 3.9,5.341 3.9,3.446 3.9,1.146 2.6,0 0,0 m 6.742,-3.619 c 3.113,1.748 4.67,4.214 4.67,7.403 0,5.424 -3.736,8.137 -11.221,8.137 l -9.021,0 0,-27.532 7.439,0 0,10.016 1.881,0 5.838,-10.016 8.436,0 -8.022,11.992 z"
             style="fill:#535353;fill-opacity:1;fill-rule:nonzero;stroke:none"
             id="path358"
             inkscape:connector-curvature="0" /></g><g
           id="g360"
           transform="translate(432.3682,424.8555)"><path
             d="m 0,0 0,5.971 -16.348,0 0,-27.533 16.348,0 0,6.062 -8.908,0 0,5.197 8.246,0 0,5.971 -8.246,0 0,4.332 L 0,0 z"
             style="fill:#535353;fill-opacity:1;fill-rule:nonzero;stroke:none"
             id="path362"
             inkscape:connector-curvature="0" /></g><g
           id="g364"
           transform="translate(280.0659,374.5068)"><path
             d="m 0,0 0,18.654 -3.551,0 0,-21.693 12.739,0 L 9.188,0 0,0 z"
             style="fill:#2597c2;fill-opacity:1;fill-rule:nonzero;stroke:none"
             id="path366"
             inkscape:connector-curvature="0" /></g><g
           id="g368"
           transform="translate(305.2642,390.1631)"><path
             d="m 0,0 0,2.998 -12.278,0 0,-21.693 12.278,0 0,3.011 -8.728,0 0,6.813 8.175,0 0,2.969 -8.175,0 0,5.902 L 0,0 z"
             style="fill:#2597c2;fill-opacity:1;fill-rule:nonzero;stroke:none"
             id="path370"
             inkscape:connector-curvature="0" /></g><path
           d="m 309.947,371.468 3.551,0 0,21.693 -3.551,0 0,-21.693 z"
           style="fill:#2597c2;fill-opacity:1;fill-rule:nonzero;stroke:none"
           id="path372"
           inkscape:connector-curvature="0" /><g
           id="g374"
           transform="translate(328.6655,383.5186)"><path
             d="m 0,0 c -0.855,-0.637 -2.186,-0.947 -4.006,-0.947 l -1.887,0 0,7.627 2.461,0 c 1.618,0 2.801,-0.313 3.563,-0.92 C 0.892,5.143 1.277,4.216 1.277,2.963 1.277,1.622 0.847,0.634 0,0 m 2.899,7.982 c -1.353,1.105 -3.383,1.661 -6.09,1.661 l -6.252,0 0,-21.694 3.55,0 0,8.117 2.258,0 c 2.74,0 4.853,0.602 6.333,1.807 1.484,1.213 2.227,2.948 2.227,5.209 0,2.159 -0.678,3.794 -2.026,4.9"
             style="fill:#2597c2;fill-opacity:1;fill-rule:nonzero;stroke:none"
             id="path376"
             inkscape:connector-curvature="0" /></g><g
           id="g378"
           transform="translate(340.2837,374.5068)"><path
             d="m 0,0 10.982,16.16 0,2.494 -14.929,0 0,-3.043 10.64,0 -10.938,-16.186 0,-2.464 15.519,0 0,3.039 L 0,0 z"
             style="fill:#2597c2;fill-opacity:1;fill-rule:nonzero;stroke:none"
             id="path380"
             inkscape:connector-curvature="0" /></g><path
           d="m 355.404,371.468 3.551,0 0,21.693 -3.551,0 0,-21.693 z"
           style="fill:#2597c2;fill-opacity:1;fill-rule:nonzero;stroke:none"
           id="path382"
           inkscape:connector-curvature="0" /><g
           id="g384"
           transform="translate(373.5508,383.2314)"><path
             d="m 0,0 0,-3.039 4.494,0 0,-5.592 C 3.188,-8.917 1.965,-9.063 0.813,-9.063 c -2.27,0 -4.02,0.69 -5.231,2.073 -1.211,1.375 -1.811,3.396 -1.811,6.045 0,2.521 0.665,4.508 2.018,5.965 1.346,1.457 3.168,2.183 5.486,2.183 1.762,0 3.524,-0.408 5.286,-1.217 l 1.242,2.952 c -2.024,0.867 -4.178,1.304 -6.442,1.304 -3.519,0 -6.281,-0.986 -8.293,-2.959 -2.008,-1.971 -3.014,-4.705 -3.014,-8.195 0,-3.543 0.897,-6.291 2.674,-8.231 1.784,-1.945 4.313,-2.919 7.594,-2.919 1.397,0 2.696,0.094 3.903,0.272 1.197,0.173 2.455,0.477 3.757,0.901 L 7.982,0 0,0 z"
             style="fill:#2597c2;fill-opacity:1;fill-rule:nonzero;stroke:none"
             id="path386"
             inkscape:connector-curvature="0" /></g></g></g></g></svg>